# xmcd
#
# Track frame offsets:
#  150
#  16782
#  36218
#  52590
#  71987
#  87881
#  108980
#  127479
#  144144
#  163182
#  181556
#  200318
#
# Disc length: 2940 seconds
#
# Revision: 0
# Processed by: cddbd v1.5.1PL2 Copyright (c) Steve Scherf et al.
# Submitted via: Collectorz.com_Music_Collector 6.9
#
DISCID=990b7a0c
DTITLE=Michelle Wright - Shut Up And Kiss Me
DYEAR=2004
DGENRE=Country
TTITLE0=1 - I Surrender
TTITLE1=10 - Sorry
TTITLE2=11 - I Will Be There
TTITLE3=12 - Circle Of Life
TTITLE4=2 - Shut And Kiss Me Or Just Shut Up
TTITLE5=3 - Still No Shangra-La
TTITLE6=4 - Broken
TTITLE7=5 - Every Time You Come Around
TTITLE8=6 - Find It In New York
TTITLE9=7 - Thank You For Your Love
TTITLE10=8 - Love Is The Only Way
TTITLE11=9 - Could You Be
EXTD=
EXTT0=
EXTT1=
EXTT2=
EXTT3=
EXTT4=
EXTT5=
EXTT6=
EXTT7=
EXTT8=
EXTT9=
EXTT10=
EXTT11=
PLAYORDER=
